<?xml version="1.0" encoding="utf-8"?>
<!-- Generator: Adobe Illustrator 17.0.0, SVG Export Plug-In . SVG Version: 6.00 Build 0)  -->
<!DOCTYPE svg PUBLIC "-//W3C//DTD SVG 1.1//EN" "http://www.w3.org/Graphics/SVG/1.1/DTD/svg11.dtd">
<svg version="1.1" id="Layer_1" xmlns="http://www.w3.org/2000/svg" xmlns:xlink="http://www.w3.org/1999/xlink" x="0px" y="0px"
	 width="200px" height="28.11px" viewBox="0 0 200 28.11" enable-background="new 0 0 200 28.11" xml:space="preserve">
<g>
	<path d="M14.498,22.25c0,1.927-0.702,3.404-2.105,4.432c-1.403,1.029-3.412,1.543-6.027,1.543c-2.628,0-4.738-0.398-6.331-1.195
		v-3.62c2.318,1.07,4.476,1.605,6.473,1.605c2.58,0,3.87-0.778,3.87-2.336c0-0.5-0.143-0.916-0.428-1.248
		c-0.286-0.333-0.755-0.678-1.409-1.034c-0.654-0.357-1.564-0.762-2.728-1.213c-2.271-0.88-3.808-1.759-4.61-2.639
		C0.401,15.664,0,14.523,0,13.12c0-1.689,0.68-2.999,2.042-3.933c1.361-0.933,3.213-1.4,5.555-1.4c2.319,0,4.512,0.471,6.581,1.409
		l-1.355,3.157c-2.129-0.88-3.918-1.32-5.368-1.32c-2.211,0-3.317,0.631-3.317,1.89c0,0.618,0.288,1.142,0.865,1.57
		c0.576,0.428,1.833,1.016,3.771,1.766c1.629,0.63,2.812,1.207,3.549,1.73c0.737,0.523,1.284,1.126,1.64,1.809
		C14.32,20.483,14.498,21.3,14.498,22.25z"/>
	<path d="M27.641,28.225c-3.067,0-5.466-0.895-7.196-2.684c-1.73-1.789-2.595-4.254-2.595-7.393c0-3.222,0.803-5.753,2.408-7.597
		c1.605-1.842,3.81-2.764,6.617-2.764c2.603,0,4.66,0.792,6.17,2.373c1.51,1.581,2.265,3.756,2.265,6.526v2.266H22.167
		c0.059,1.914,0.576,3.385,1.552,4.414c0.975,1.029,2.348,1.542,4.12,1.542c1.165,0,2.25-0.11,3.255-0.33
		c1.005-0.219,2.083-0.585,3.237-1.096v3.406c-1.023,0.488-2.057,0.832-3.103,1.034C30.18,28.123,28.985,28.225,27.641,28.225z
		 M26.875,10.962c-1.332,0-2.399,0.423-3.201,1.266c-0.802,0.845-1.281,2.075-1.435,3.692h8.952c-0.024-1.629-0.416-2.863-1.177-3.7
		C29.252,11.381,28.206,10.962,26.875,10.962z"/>
	<path d="M57.423,27.868h-4.208V15.741c0-1.522-0.306-2.657-0.919-3.406c-0.612-0.749-1.585-1.124-2.916-1.124
		c-1.772,0-3.067,0.523-3.888,1.57c-0.82,1.047-1.231,2.8-1.231,5.26v9.827h-4.191V8.144h3.281l0.589,2.586h0.214
		c0.594-0.939,1.438-1.665,2.532-2.176c1.094-0.511,2.306-0.767,3.638-0.767c4.732,0,7.098,2.408,7.098,7.223V27.868z"/>
	<path d="M69.907,28.225c-2.461,0-4.381-0.892-5.761-2.675c-1.379-1.784-2.069-4.286-2.069-7.509c0-3.233,0.698-5.751,2.096-7.551
		c1.397-1.801,3.332-2.703,5.805-2.703c2.591,0,4.565,0.957,5.921,2.872h0.214c-0.202-1.415-0.303-2.533-0.303-3.352V0.12h4.208
		v27.749h-3.281l-0.731-2.586h-0.196C74.466,27.244,72.498,28.225,69.907,28.225z M71.03,24.837c1.724,0,2.978-0.484,3.763-1.454
		c0.784-0.97,1.189-2.542,1.213-4.717v-0.589c0-2.485-0.404-4.249-1.213-5.296s-2.075-1.57-3.799-1.57
		c-1.474,0-2.61,0.598-3.406,1.793c-0.797,1.195-1.195,2.898-1.195,5.109c0,2.188,0.386,3.856,1.159,5.003
		S69.484,24.837,71.03,24.837z"/>
	<path d="M102.185,27.868l-2.55-9.202c-0.309-0.975-0.868-3.24-1.676-6.794h-0.16c-0.69,3.209-1.237,5.486-1.641,6.83l-2.622,9.166
		h-4.636L83.371,8.144h4.28l2.514,9.72c0.571,2.402,0.975,4.458,1.213,6.17h0.107c0.119-0.868,0.3-1.864,0.544-2.987
		c0.244-1.124,0.455-1.965,0.633-2.524l2.996-10.379h4.601l2.907,10.379c0.178,0.583,0.401,1.475,0.669,2.675
		c0.268,1.201,0.425,2.135,0.472,2.8h0.143c0.178-1.463,0.594-3.507,1.248-6.135l2.55-9.72h4.209l-5.564,19.724H102.185z"/>
	<path d="M115.596,2.92c0-0.749,0.205-1.326,0.615-1.73c0.41-0.405,0.996-0.606,1.757-0.606c0.737,0,1.311,0.201,1.721,0.606
		c0.41,0.404,0.615,0.981,0.615,1.73c0,0.713-0.205,1.275-0.615,1.685c-0.41,0.41-0.984,0.615-1.721,0.615
		c-0.761,0-1.346-0.205-1.757-0.615C115.801,4.194,115.596,3.633,115.596,2.92z M120.036,27.868h-4.191V8.144h4.191V27.868z"/>
	<path d="M133.375,24.837c1.023,0,2.045-0.161,3.068-0.482v3.157c-0.464,0.202-1.061,0.371-1.793,0.508
		c-0.731,0.136-1.489,0.206-2.274,0.206c-3.971,0-5.956-2.092-5.956-6.278V11.319h-2.693V9.465l2.889-1.534l1.427-4.173h2.586v4.387
		h5.617v3.175h-5.617v10.557c0,1.011,0.252,1.757,0.758,2.239C131.892,24.595,132.555,24.837,133.375,24.837z"/>
	<path d="M157.735,27.868h-4.208V15.741c0-1.522-0.306-2.657-0.919-3.406c-0.612-0.749-1.585-1.124-2.916-1.124
		c-1.76,0-3.053,0.527-3.879,1.579c-0.826,1.052-1.24,2.815-1.24,5.287v9.791h-4.191V0.12h4.191v7.044
		c0,1.131-0.072,2.336-0.214,3.621h0.268c0.57-0.952,1.364-1.689,2.381-2.212c1.016-0.523,2.202-0.785,3.558-0.785
		c4.779,0,7.169,2.408,7.169,7.223V27.868z"/>
	<path d="M177.477,27.868l-0.588-2.586h-0.214c-0.583,0.916-1.412,1.635-2.488,2.158c-1.076,0.523-2.304,0.785-3.682,0.785
		c-2.39,0-4.173-0.595-5.35-1.784c-1.177-1.189-1.765-2.99-1.765-5.403V8.144h4.226v12.163c0,1.51,0.309,2.642,0.927,3.397
		c0.618,0.755,1.587,1.133,2.907,1.133c1.76,0,3.053-0.527,3.879-1.579c0.826-1.052,1.239-2.815,1.239-5.287V8.144h4.209v19.724
		H177.477z"/>
	<path d="M200,22.25c0,1.927-0.701,3.404-2.103,4.432c-1.403,1.029-3.413,1.543-6.028,1.543c-2.627,0-4.737-0.398-6.33-1.195v-3.62
		c2.318,1.07,4.476,1.605,6.473,1.605c2.58,0,3.87-0.778,3.87-2.336c0-0.5-0.143-0.916-0.428-1.248
		c-0.285-0.333-0.756-0.678-1.409-1.034c-0.654-0.357-1.563-0.762-2.728-1.213c-2.271-0.88-3.808-1.759-4.61-2.639
		c-0.803-0.88-1.204-2.021-1.204-3.424c0-1.689,0.68-2.999,2.042-3.933c1.361-0.933,3.213-1.4,5.555-1.4
		c2.318,0,4.511,0.471,6.58,1.409l-1.355,3.157c-2.128-0.88-3.917-1.32-5.367-1.32c-2.211,0-3.317,0.631-3.317,1.89
		c0,0.618,0.288,1.142,0.864,1.57c0.577,0.428,1.834,1.016,3.772,1.766c1.629,0.63,2.812,1.207,3.549,1.73
		c0.737,0.523,1.284,1.126,1.64,1.809C199.822,20.483,200,21.3,200,22.25z"/>
</g>
</svg>
